<svg xmlns="http://www.w3.org/2000/svg" viewBox="0 0 32 32"><rect width="32" height="32" rx="7" fill="#0a0a0a"/><g transform="translate(4 4)" stroke="#ffffff" stroke-width="1.6" stroke-linecap="round" stroke-linejoin="round" fill="none"><path d="M9.5 2a2.5 2.5 0 0 1 2.5 2.5v0a2.5 2.5 0 0 1-2.5 2.5h0A2.5 2.5 0 0 1 7 4.5v0A2.5 2.5 0 0 1 9.5 2z"/><path d="M14.5 2a2.5 2.5 0 0 1 2.5 2.5v0a2.5 2.5 0 0 1-2.5 2.5"/><path d="M7 7a3 3 0 0 0-3 3v0a3 3 0 0 0 3 3"/><path d="M17 7a3 3 0 0 1 3 3v0a3 3 0 0 1-3 3"/><path d="M8 13a3 3 0 0 0-2 2.83v0A3 3 0 0 0 8.17 19H9"/><path d="M16 13a3 3 0 0 1 2 2.83v0A3 3 0 0 1 15.83 19H15"/><path d="M9 19a3 3 0 0 0 3 3v0a3 3 0 0 0 3-3"/><path d="M12 7v15"/></g></svg>
